<?xml version="1.0" standalone="no"?>
<!DOCTYPE svg PUBLIC "-//W3C//DTD SVG 20010904//EN"
 "http://www.w3.org/TR/2001/REC-SVG-20010904/DTD/svg10.dtd">
<svg version="1.0" xmlns="http://www.w3.org/2000/svg"
 width="1024.000000pt" height="1024.000000pt" viewBox="0 0 1024.000000 1024.000000"
 preserveAspectRatio="xMidYMid meet">
<metadata>
Created by potrace 1.16, written by Peter Selinger 2001-2019
</metadata>
<g transform="translate(0.000000,1024.000000) scale(0.100000,-0.100000)"
fill="#000000" stroke="none">
<path d="M0 5120 l0 -5120 5120 0 5120 0 0 5120 0 5120 -5120 0 -5120 0 0
-5120z m5356 3884 c170 -35 351 -115 480 -212 85 -64 228 -209 255 -257 17
-30 17 -30 -39 -107 l-55 -78 -20 33 c-44 72 -134 171 -210 228 -260 196 -589
264 -900 185 -235 -60 -413 -173 -562 -359 -178 -221 -249 -450 -239 -764 4
-102 4 -103 -21 -109 -14 -3 -25 -10 -25 -15 0 -5 -7 -5 -17 -2 -12 5 -14 3
-8 -8 6 -9 0 -8 -19 4 -15 10 -30 16 -33 13 -3 -3 2 -8 11 -12 20 -8 21 -20 0
-28 -8 -3 -13 -2 -10 3 3 5 -2 24 -12 42 -25 50 -30 337 -8 451 56 281 175
501 367 682 95 89 132 116 251 180 104 56 230 101 353 126 119 24 357 26 461
4z m1814 -29 c46 -8 107 -22 135 -31 82 -27 209 -93 256 -134 l44 -39 -25 -24
-25 -25 -95 56 c-53 31 -127 67 -165 80 -338 108 -714 -8 -930 -288 -157 -204
-197 -494 -106 -766 25 -73 26 -82 12 -93 -14 -10 -13 -11 7 -7 16 3 22 -1 22
-14 0 -10 6 -20 13 -23 6 -2 0 -4 -14 -3 -18 1 -25 5 -21 15 3 9 0 12 -9 9 -8
-3 -13 -12 -11 -19 3 -10 -1 -9 -15 2 -10 9 -25 18 -33 21 -37 13 -80 220 -80
382 1 226 49 382 175 561 50 71 107 125 190 182 213 144 445 199 675 158z
m-225 -213 c-8 -15 -26 -67 -40 -116 -29 -103 -32 -199 -10 -308 17 -83 66
-230 79 -239 5 -4 5 -12 1 -19 -5 -8 -4 -11 2 -7 6 4 15 -5 22 -19 7 -16 7
-23 1 -19 -6 4 -10 3 -9 -2 4 -21 -2 -34 -13 -28 -7 4 -6 0 4 -7 9 -8 18 -25
20 -38 3 -22 4 -23 20 -7 9 9 20 17 24 17 5 0 3 -5 -4 -12 -15 -15 -16 -31 0
-22 7 4 8 3 4 -5 -6 -8 -12 -9 -20 -2 -7 6 -15 8 -18 6 -3 -3 -15 -7 -26 -10
-15 -2 -19 0 -15 11 3 9 0 13 -8 11 -8 -2 -11 -2 -6 0 4 3 5 8 3 12 -3 4 1 8
9 8 8 0 12 -4 9 -8 -2 -4 0 -10 6 -14 5 -3 10 1 10 9 0 8 -6 19 -14 23 -8 4
-16 17 -19 28 -4 17 -5 17 -6 -4 -1 -17 -5 -22 -17 -17 -14 5 -15 4 -5 -7 9
-11 7 -17 -6 -28 -16 -13 -17 -12 -4 4 12 15 10 17 -18 17 -23 0 -30 4 -25 13
4 6 4 9 -1 5 -4 -4 -15 -2 -24 4 -13 10 -14 10 -3 -2 14 -17 16 -34 2 -25 -14
8 -54 16 -47 8 8 -7 -18 -33 -32 -33 -6 0 -11 -8 -11 -17 -1 -25 -21 -48 -45
-50 -11 -1 -14 0 -7 3 6 3 9 10 6 15 -4 6 -11 6 -19 -1 -10 -9 -13 -7 -10 7 2
10 4 20 4 22 1 2 9 -3 19 -12 22 -20 42 -6 41 28 0 11 -3 14 -6 7 -2 -6 -10
-9 -16 -5 -7 4 -6 -1 2 -10 20 -26 -4 -21 -30 6 -12 12 -19 17 -16 11 4 -7 0
-17 -8 -24 -8 -7 -12 -16 -9 -21 3 -5 0 -9 -6 -9 -7 0 -9 -7 -6 -16 3 -9 2
-12 -4 -9 -12 7 -9 37 4 46 4 4 4 9 -2 13 -5 3 -21 -3 -35 -14 -32 -25 -43
-26 -19 -2 27 27 54 35 64 20 5 -8 8 -9 8 -2 0 6 -7 17 -15 24 -12 10 -15 10
-15 0 0 -7 -8 -10 -20 -7 -12 3 -20 0 -20 -8 0 -14 -29 -29 -38 -20 -3 3 0 5
6 5 20 0 13 27 -8 33 -11 3 -18 1 -15 -3 3 -5 -1 -11 -7 -14 -7 -3 -2 -3 12 0
23 4 23 4 6 -7 -16 -10 -22 -9 -35 7 -21 25 -78 28 -84 5 -4 -14 -5 -13 -6 2
0 10 9 22 22 27 16 6 17 9 5 9 -9 1 -20 -4 -23 -9 -4 -6 -11 -8 -16 -5 -5 3
-6 -2 -3 -12 5 -17 5 -17 -9 -1 -8 10 -16 15 -19 12 -4 -3 -8 -1 -12 4 -3 5 1
9 9 10 8 1 22 3 29 4 11 1 12 6 5 20 -12 23 -20 24 -12 1 6 -16 5 -16 -10 -4
-15 12 -17 12 -12 0 3 -9 -1 -15 -13 -16 -37 -3 -42 125 -13 272 23 114 62
202 127 286 59 77 124 128 229 180 78 39 220 82 238 72 4 -2 1 -16 -8 -31z
m287 12 c183 -44 378 -200 457 -367 50 -105 84 -257 61 -272 -6 -4 -10 5 -10
23 0 78 -78 258 -119 274 -21 7 -23 11 -11 18 12 8 12 10 -4 10 -13 0 -17 -5
-13 -20 3 -11 1 -20 -4 -20 -5 0 -9 8 -9 18 0 14 -2 15 -10 2 -8 -13 -10 -13
-10 1 0 9 -7 20 -16 23 -8 3 -12 2 -9 -4 3 -6 0 -10 -9 -10 -8 0 -16 5 -18 12
-3 9 -6 9 -12 0 -5 -8 3 -14 24 -18 17 -4 28 -9 26 -12 -3 -3 2 -11 11 -17 15
-11 15 -13 -5 -24 -17 -9 -21 -9 -17 1 7 17 -47 21 -57 5 -5 -8 -8 -7 -8 3 0
13 -1 13 -10 0 -6 -10 -10 -11 -10 -2 0 6 -5 12 -11 12 -6 0 -8 -7 -5 -16 3
-8 2 -12 -3 -9 -5 3 -11 -5 -13 -17 -2 -12 -10 -23 -18 -25 -10 -3 -11 -2 -4
4 6 4 9 17 7 28 -2 11 -5 25 -5 32 -1 7 -5 10 -10 7 -4 -3 -3 -14 2 -25 13
-23 3 -25 -20 -4 -14 13 -16 12 -16 -5 0 -10 4 -17 7 -14 4 2 11 -1 15 -7 4
-8 3 -9 -5 -5 -8 5 -10 0 -7 -18 3 -20 1 -23 -12 -19 -12 5 -14 2 -9 -13 7
-19 7 -19 -8 0 -11 15 -15 16 -15 5 0 -8 5 -20 11 -26 8 -8 8 -13 0 -18 -6 -3
-11 -3 -10 2 4 22 -3 24 -23 7 -12 -10 -18 -14 -15 -7 4 6 3 14 -3 18 -13 8
-13 25 0 25 6 0 9 -3 8 -7 -2 -5 1 -9 6 -11 6 -1 11 4 12 13 1 8 -1 13 -5 10
-5 -2 -16 2 -27 9 -10 8 -25 11 -33 8 -9 -3 -12 -1 -7 6 4 8 2 10 -8 6 -12 -5
-12 -8 2 -23 15 -15 18 -15 24 -1 8 17 8 16 12 -27 4 -38 -12 -57 -34 -41 -12
8 -12 9 2 4 22 -7 34 12 18 27 -10 9 -11 9 -6 0 5 -8 1 -13 -9 -13 -10 0 -13
5 -9 12 5 7 3 8 -6 3 -7 -4 -16 -2 -21 6 -7 12 -9 11 -9 -1 0 -9 6 -22 13 -30
10 -12 9 -12 -5 -1 -10 7 -18 9 -18 5 0 -5 -15 -9 -32 -9 -24 0 -32 -4 -30
-15 3 -11 -2 -10 -17 4 -12 11 -21 16 -21 11 0 -4 -6 -4 -13 1 -7 5 -4 0 8
-10 16 -16 17 -18 3 -13 -11 4 -21 0 -28 -11 -8 -14 -9 -13 -7 7 1 13 -4 26
-11 28 -16 6 -6 -58 11 -69 9 -6 9 -8 0 -8 -9 0 -7 -14 7 -50 11 -27 18 -50
15 -50 -10 0 -55 100 -81 181 -25 73 -28 100 -29 204 0 100 4 132 23 190 27
78 50 127 66 137 14 9 116 0 188 -18z m-1989 -85 c71 -10 237 -60 267 -79 12
-8 11 -11 -9 -17 -41 -11 -232 -108 -287 -145 l-51 -35 -104 34 c-116 37 -248
63 -327 63 -47 0 -53 3 -62 26 -18 45 -12 52 68 82 188 73 345 95 505 71z
m-2583 -127 c219 -77 405 -241 509 -450 18 -35 55 -130 83 -210 99 -288 187
-416 375 -547 24 -17 43 -33 43 -37 0 -3 -23 -9 -50 -13 l-50 -7 -83 67 c-123
100 -184 161 -218 222 -61 106 -41 36 28 -101 41 -82 74 -129 121 -172 23 -21
30 -34 23 -39 -13 -7 -22 -1 -94 65 -116 108 -172 207 -181 327 -11 146 -79
333 -168 465 -50 75 -163 185 -232 227 -120 72 -295 109 -381 81 -44 -15 -110
-71 -132 -114 -21 -41 -29 -181 -13 -258 24 -125 98 -275 177 -359 24 -25 43
-48 43 -51 0 -2 -15 -2 -32 0 -19 3 -29 1 -25 -4 5 -5 25 -9 45 -9 33 0 37 -3
43 -32 3 -17 19 -43 35 -56 16 -14 26 -28 23 -31 -3 -4 -25 11 -47 32 -23 22
-43 37 -45 35 -6 -5 -125 119 -152 160 -76 111 -142 288 -152 407 -6 70 -7 73
-16 40 -5 -19 -7 -71 -4 -115 15 -209 101 -373 287 -548 100 -94 170 -137 364
-221 176 -77 249 -123 335 -209 l63 -65 -11 -73 c-21 -132 -20 -131 -42 -65
-51 149 -165 258 -360 342 -228 97 -319 155 -435 275 -104 109 -149 170 -199
272 -101 205 -113 416 -33 576 56 110 131 173 251 206 71 20 233 13 307 -13z
m3061 -81 c41 -37 42 -40 17 -35 -21 3 -30 -1 -39 -18 -11 -21 -11 -22 5 -9
14 12 16 12 11 -1 -3 -8 -19 -15 -35 -15 -18 0 -27 4 -23 11 3 6 -4 2 -15 -9
-42 -40 -53 -46 -90 -52 -20 -3 -40 -10 -43 -15 -3 -5 -13 -2 -22 6 -14 15
-16 14 -22 -5 -4 -11 -9 -18 -12 -15 -3 3 -15 -1 -26 -9 -18 -12 -26 -11 -73
13 -29 15 -53 29 -54 32 0 16 187 110 280 141 78 26 92 24 141 -20z m-1156
-51 c3 -5 3 -32 -1 -60 l-7 -52 -56 6 c-31 3 -69 5 -84 5 l-29 1 24 31 c52 69
66 79 107 79 22 0 43 -4 46 -10z m281 -36 c76 -15 194 -51 206 -63 4 -3 -26
-42 -67 -86 -41 -44 -75 -84 -75 -88 0 -5 -7 -7 -14 -4 -10 4 -13 1 -9 -9 3
-9 -7 -3 -23 11 -53 50 -130 105 -163 116 -30 11 -32 15 -27 42 3 16 6 47 6
69 l0 39 48 -6 c26 -4 79 -13 118 -21z m-1138 -29 c50 -58 8 -155 -67 -155
-87 0 -124 99 -61 162 27 26 36 30 68 25 22 -4 46 -17 60 -32z m820 -150 c1
-1 -12 -26 -29 -54 -22 -35 -37 -50 -47 -46 -12 4 -12 3 -3 -9 8 -9 8 -16 2
-20 -5 -4 -12 -2 -16 4 -10 16 -45 32 -45 20 0 -5 6 -10 14 -10 8 0 18 -4 21
-10 9 -14 -37 -8 -53 7 -7 7 -11 17 -8 22 3 5 -1 14 -9 21 -12 10 -13 8 -10
-10 5 -25 -4 -52 -15 -45 -10 6 -22 -23 -15 -35 4 -7 -17 -7 -35 0 -3 1 -8 2
-12 1 -10 -1 -10 13 -1 22 3 4 12 -1 19 -11 12 -16 13 -15 14 6 0 13 -6 22
-15 22 -12 0 -12 5 0 39 7 21 21 53 30 71 l16 32 97 -7 c53 -4 98 -9 100 -10z
m-2698 -260 c0 -17 53 -88 179 -238 99 -118 212 -250 252 -293 39 -43 94 -103
120 -132 27 -29 49 -60 49 -68 0 -8 3 -13 8 -13 30 5 47 -18 30 -42 -8 -11 -9
-11 -4 3 6 19 -8 31 -36 33 -10 1 -16 -5 -15 -16 1 -10 4 -16 7 -14 3 2 12 0
20 -6 13 -7 13 -9 0 -9 -12 0 -13 -2 -1 -9 10 -6 1 -11 -28 -16 -46 -8 -84 10
-59 28 10 6 9 8 -4 4 -11 -4 -36 16 -79 66 -35 40 -66 74 -69 77 -18 17 -141
165 -298 359 -174 214 -182 225 -182 267 l0 44 55 0 c52 0 55 -1 55 -25z
m1851 5 c22 -12 49 -60 49 -89 0 -11 -12 -33 -26 -50 -20 -25 -34 -31 -64 -31
-57 0 -90 31 -90 85 0 36 5 48 31 69 32 27 67 33 100 16z m4905 -12 c-3 -13
-6 -367 -6 -787 0 -420 -2 -762 -5 -760 -2 3 -5 43 -6 90 -1 96 -14 190 -27
198 -14 9 -62 155 -62 188 0 22 -2 25 -10 13 -7 -11 -10 -11 -10 -2 0 7 -9 22
-20 34 l-20 22 -2 -35 c-6 -129 -16 232 -17 609 l-1 452 96 0 c95 0 96 0 90
-22z m-616 -309 c0 -10 12 -80 26 -156 14 -76 34 -183 44 -238 10 -55 30 -163
44 -240 15 -77 41 -219 57 -315 17 -96 33 -189 36 -206 6 -34 4 -35 -65 -49
-67 -14 -82 -13 -83 4 0 10 -2 12 -6 3 -2 -6 -9 -9 -14 -6 -6 3 -16 0 -24 -6
-8 -7 -20 -10 -27 -7 -7 3 -4 6 7 6 17 1 17 3 5 11 -12 8 -11 10 8 10 12 0 22
4 22 10 0 5 6 8 13 6 6 -1 9 -1 6 1 -3 2 -4 14 -2 27 3 13 1 26 -4 29 -5 3 -9
-7 -8 -21 0 -24 -3 -27 -27 -24 -18 2 -28 -1 -28 -10 0 -10 -3 -9 -10 2 -8 13
-10 12 -10 -3 0 -10 -12 -22 -26 -28 -15 -5 -24 -12 -21 -15 3 -3 19 1 36 9
29 15 30 14 21 -3 -7 -13 -19 -17 -42 -16 -18 2 -36 -2 -40 -8 -5 -6 -8 -2 -8
10 0 12 10 26 23 33 12 6 14 9 5 7 -12 -4 -18 0 -18 10 0 8 -4 13 -10 9 -5 -3
-7 -12 -3 -20 3 -8 0 -15 -6 -15 -6 0 -11 13 -11 30 0 16 3 29 8 27 4 -1 8 3
10 8 1 6 -1 10 -5 11 -5 0 -20 4 -36 8 -18 6 -33 4 -44 -5 -14 -12 -16 -12 -9
0 7 10 3 12 -13 6 -15 -4 -21 -3 -19 7 2 8 -9 14 -33 16 -32 3 -35 6 -32 26 3
16 0 23 -11 23 -12 0 -13 -4 -6 -11 21 -21 9 -29 -13 -8 -13 12 -27 22 -33 22
-5 0 -2 -5 6 -11 11 -8 8 -9 -15 -5 -22 5 -26 4 -15 -4 12 -8 13 -10 1 -10 -8
0 -12 -2 -9 -5 3 -3 17 -1 32 4 22 9 28 7 38 -9 7 -11 22 -21 33 -21 17 -1 17
-2 3 -6 -10 -2 -18 -12 -18 -21 0 -11 -3 -13 -8 -6 -9 14 -42 14 -42 0 0 -6
-7 -3 -15 8 -9 12 -22 17 -35 13 -25 -6 -36 9 -20 28 7 8 9 15 4 15 -5 0 -2 5
6 11 12 8 11 9 -5 7 -26 -4 -46 -21 -34 -29 14 -8 0 -39 -17 -39 -8 0 -14 5
-14 10 0 15 -30 12 -31 -2 -1 -7 -3 -26 -5 -43 -3 -16 -6 -42 -7 -57 -1 -14
-5 -24 -9 -21 -5 2 -9 -7 -9 -21 -2 -40 -3 -44 -14 -55 -9 -8 -155 -35 -160
-29 -1 2 21 122 50 268 30 146 77 384 105 530 28 146 61 314 73 373 11 60 25
114 31 122 6 8 25 17 41 20 32 5 162 27 309 50 49 8 91 17 95 20 8 9 31 -25
31 -46z m-832 -773 l3 -574 -28 -6 c-15 -3 -59 -10 -98 -16 -38 -6 -82 -13
-97 -16 l-28 -6 0 241 c0 277 14 250 -116 227 -44 -8 -112 -19 -151 -26 l-73
-12 0 -239 c0 -131 -2 -239 -4 -239 -3 0 -156 -25 -208 -35 l-28 -4 0 587 0
587 108 18 c59 9 113 17 120 17 9 0 12 -55 12 -240 0 -161 3 -240 10 -240 6 0
61 9 123 19 62 11 133 22 160 26 l47 6 0 229 0 229 33 5 c17 3 66 10 107 17
79 11 105 16 105 18 0 0 1 -257 3 -573z m-1082 387 c72 -33 94 -85 94 -224 0
-113 12 -100 -117 -119 -111 -16 -103 -21 -103 68 0 43 -2 81 -5 83 -4 5 -315
-38 -321 -44 -5 -5 -6 -739 -1 -744 3 -2 73 7 156 21 83 15 155 26 161 26 6 0
10 30 10 73 l0 72 102 17 c56 9 105 15 110 12 12 -8 10 -176 -3 -215 -7 -19
-23 -49 -36 -67 -44 -59 -90 -81 -224 -106 -346 -67 -426 -58 -480 51 l-24 48
0 415 c0 405 0 416 21 455 59 108 112 134 349 170 240 37 249 37 311 8z
m-4183 -161 c67 -81 132 -157 145 -170 l23 -24 -33 -46 c-18 -26 -39 -60 -46
-75 -8 -18 -16 -25 -25 -21 -8 5 -8 2 2 -9 9 -12 10 -17 2 -17 -7 0 -11 -6
-10 -12 3 -28 -1 -59 -9 -55 -4 3 -8 -15 -9 -40 -1 -25 -6 -49 -11 -52 -16
-11 -21 -51 -8 -64 15 -15 17 -47 3 -47 -6 0 -8 -3 -4 -6 3 -3 2 -17 -3 -30
-6 -15 -6 -24 0 -24 6 0 10 -5 10 -11 0 -5 -4 -7 -10 -4 -14 9 -13 -8 2 -23 9
-9 8 -12 -5 -12 -21 0 -22 -19 -2 -34 13 -9 11 -11 -9 -11 -16 0 -22 4 -18 14
3 9 1 12 -6 7 -7 -4 -9 -19 -5 -37 4 -21 1 -34 -8 -41 -11 -8 -10 -9 4 -4 14
4 17 -1 17 -25 0 -20 4 -28 12 -23 7 4 8 3 4 -5 -4 -6 -2 -20 5 -29 11 -13 8
-12 -9 2 -13 12 -22 14 -22 7 0 -7 -3 -10 -7 -8 -5 3 -17 -5 -28 -16 l-20 -20
22 12 c27 14 43 14 43 0 0 -5 -6 -7 -12 -3 -9 5 -9 2 1 -9 9 -11 10 -17 2 -17
-6 0 -11 -7 -11 -15 0 -8 -5 -15 -10 -15 -7 0 -7 6 0 19 13 26 0 33 -25 14
-18 -14 -18 -15 -1 -9 13 4 17 2 13 -8 -3 -8 1 -20 9 -26 16 -14 20 -35 4 -25
-5 3 -18 1 -27 -5 -14 -9 -14 -10 -2 -7 9 3 22 1 30 -4 11 -8 11 -9 -3 -7 -9
2 -16 -1 -15 -7 1 -5 6 -9 10 -7 5 1 6 -2 2 -8 -3 -5 -15 -10 -27 -10 -18 0
-19 -2 -7 -17 11 -13 11 -15 1 -9 -11 7 -11 4 -1 -12 7 -12 17 -18 23 -15 5 3
6 1 2 -5 -4 -6 -13 -9 -21 -5 -9 3 -15 -1 -15 -11 0 -9 -5 -16 -11 -16 -5 0
-7 5 -4 10 3 6 1 10 -4 10 -14 0 -14 -17 -1 -25 6 -3 10 -11 10 -16 0 -6 -4
-7 -10 -4 -5 3 -10 1 -10 -4 0 -6 5 -11 12 -11 9 0 9 -3 0 -12 -6 -6 -15 -8
-19 -4 -5 4 -10 323 -12 708 -2 528 0 699 9 693 6 -4 66 -73 133 -153z m2007
70 c0 -5 16 -85 35 -178 33 -162 88 -446 175 -904 23 -118 43 -222 46 -231 4
-13 -10 -18 -72 -28 -41 -7 -78 -10 -81 -7 -3 3 -12 31 -20 63 -8 32 -16 65
-18 73 -2 8 -4 19 -4 23 -1 12 -21 -2 -21 -14 0 -6 5 -7 12 -3 6 4 9 3 5 -2
-3 -5 -21 -9 -40 -8 -27 1 -34 -2 -32 -15 2 -18 33 -23 53 -8 9 7 11 6 6 -7
-4 -11 -2 -15 8 -11 9 4 15 0 15 -9 0 -8 -4 -13 -8 -10 -4 2 -9 -1 -11 -7 -3
-8 -27 -9 -80 -4 -71 7 -77 9 -83 33 -5 21 -8 23 -16 11 -8 -12 -11 -11 -20 4
-5 9 -19 17 -30 17 -15 0 -19 6 -17 23 2 14 -2 21 -10 19 -8 -1 -11 2 -7 8 3
5 12 10 20 10 8 0 16 4 20 10 3 6 -5 5 -23 -1 -16 -5 -33 -9 -38 -8 -18 5
-104 -13 -104 -22 0 -8 9 -7 60 7 24 6 24 6 5 -9 -11 -9 -15 -17 -10 -17 6 0
3 -5 -5 -10 -10 -6 -11 -10 -2 -10 6 0 12 -5 12 -11 0 -8 -5 -7 -16 2 -13 10
-17 10 -25 -2 -6 -10 -9 -10 -9 -1 0 6 -4 12 -10 12 -5 0 -9 -5 -7 -11 1 -6
-5 -14 -13 -16 -13 -4 -13 -3 0 6 9 7 11 11 3 11 -7 0 -20 -16 -29 -35 -18
-39 -29 -47 -19 -14 4 13 0 28 -12 41 -10 12 -13 18 -7 15 7 -4 17 0 24 8 10
12 16 13 28 3 13 -11 15 -10 9 4 -3 9 -1 19 6 22 7 3 6 5 -3 5 -9 1 -26 -7
-39 -16 -14 -9 -21 -11 -17 -5 11 18 -25 15 -67 -7 -20 -10 -35 -15 -32 -11 3
5 0 12 -6 15 -5 4 -8 14 -5 22 3 8 2 11 -3 8 -8 -4 -9 -60 -1 -60 1 0 3 -8 5
-18 2 -9 0 -15 -5 -12 -4 3 -13 -2 -19 -9 -9 -10 -9 -16 -1 -21 8 -5 8 -10 0
-20 -8 -10 -7 -14 2 -18 8 -3 5 -6 -7 -7 l-20 -1 20 -9 c17 -7 17 -9 3 -9 -10
-1 -18 -6 -18 -12 0 -6 6 -7 13 -2 7 4 5 -4 -5 -18 -9 -14 -18 -36 -20 -50 -3
-21 -10 -25 -63 -31 -33 -5 -72 -12 -87 -17 -14 -5 -28 -7 -30 -5 -3 2 1 32 8
66 7 35 15 74 18 88 19 103 48 252 56 285 6 22 28 135 51 250 63 327 116 583
136 662 17 67 20 73 48 79 54 12 399 71 423 73 12 0 22 -3 22 -7z m1330 -586
l0 -584 -52 -7 c-29 -4 -113 -18 -186 -31 -73 -13 -142 -24 -152 -24 -18 0
-52 54 -261 419 l-94 163 -3 -315 -2 -316 -38 -6 c-20 -3 -61 -10 -91 -15 -30
-6 -67 -10 -83 -10 l-28 0 0 584 0 584 88 12 c48 6 125 17 171 24 76 12 86 11
101 -4 17 -17 134 -203 230 -365 86 -146 154 -255 160 -255 3 0 4 157 2 348
l-4 349 99 15 c54 8 108 16 121 17 l22 1 0 -584z m-2409 406 c57 -25 104 -76
124 -131 20 -57 22 -331 2 -331 -23 0 -182 -21 -199 -26 -16 -5 -18 5 -18 110
0 88 -3 114 -12 111 -13 -4 -35 -8 -152 -25 -37 -6 -72 -13 -77 -16 -5 -3 -9
-190 -9 -419 0 -321 3 -414 13 -417 17 -6 128 9 235 31 1 1 2 43 2 95 l0 94
88 12 c48 6 99 14 115 16 l27 6 0 -119 c-1 -70 -6 -133 -14 -154 -14 -39 -66
-113 -74 -105 -2 3 -13 -6 -24 -19 -13 -17 -30 -25 -49 -25 -16 0 -29 -5 -29
-10 0 -6 -12 -8 -27 -5 -32 6 -82 -12 -100 -35 -10 -13 -11 -13 -10 4 1 10 -4
21 -11 23 -8 3 -10 -1 -5 -14 6 -15 4 -16 -8 -6 -14 12 -48 17 -84 14 -17 -1
-18 -3 -5 -11 33 -21 -17 -10 -69 16 -36 18 -50 31 -47 41 3 8 2 12 -3 9 -12
-8 -36 22 -61 74 -21 43 -21 44 -16 11 4 -19 13 -47 20 -63 13 -24 13 -30 0
-43 -14 -13 -14 -15 -1 -15 9 0 17 5 19 12 3 7 7 4 12 -7 4 -11 4 -16 0 -12
-4 4 -13 -1 -21 -11 -8 -9 -12 -12 -9 -6 3 7 -4 14 -17 18 -13 3 -34 15 -47
26 -17 15 -26 17 -36 9 -16 -13 -57 -2 -48 13 4 7 2 8 -4 4 -17 -10 -49 27
-62 71 -17 57 -26 731 -11 819 17 96 48 159 116 232 46 50 77 72 149 107 50
24 116 48 146 54 30 6 64 13 75 15 45 11 174 -2 216 -22z m4701 -739 c-17 -21
-66 -73 -109 -115 l-78 -78 -120 -19 c-66 -11 -286 -45 -490 -76 -203 -31
-453 -69 -555 -85 -296 -47 -686 -108 -805 -125 -300 -44 -485 -165 -605 -396
-46 -89 -59 -142 -94 -379 -14 -96 -34 -212 -44 -257 l-17 -82 -140 -107 c-87
-66 -141 -101 -143 -92 -1 7 7 74 18 148 11 74 31 219 45 322 40 308 93 472
204 636 89 130 254 258 418 323 111 44 364 88 1263 220 146 21 292 43 325 49
83 14 101 17 297 45 95 14 180 27 188 30 8 2 31 6 50 9 266 38 330 48 360 55
60 15 63 13 32 -26z m708 -303 c17 -96 42 -238 56 -315 14 -77 29 -162 34
-190 5 -27 18 -104 30 -170 59 -330 150 -862 150 -880 0 -13 -174 -46 -197
-38 -10 4 -16 18 -30 73 -2 8 -4 28 -4 44 0 15 -5 40 -10 54 -6 15 -12 47 -15
72 -3 25 -7 54 -9 65 -2 11 -4 24 -4 28 -1 11 -60 -1 -88 -19 -12 -7 -23 -10
-25 -5 -4 11 -78 1 -78 -11 0 -5 5 -6 11 -2 6 3 15 0 20 -7 8 -12 12 -11 23 4
8 10 17 14 20 9 6 -11 46 -10 64 1 8 6 12 1 13 -15 1 -18 2 -19 6 -5 5 20 24
18 31 -3 3 -8 0 -10 -8 -5 -10 6 -12 4 -7 -7 4 -12 0 -15 -16 -11 -18 4 -19 3
-7 -6 13 -10 13 -12 0 -21 -11 -7 -11 -10 -2 -10 9 0 10 -5 2 -19 -5 -11 -10
-31 -10 -45 0 -20 4 -24 17 -19 12 5 15 2 10 -10 -6 -16 -3 -18 30 -21 23 -2
8 -21 -19 -24 -21 -2 -27 2 -30 20 -2 19 -10 23 -45 26 -38 3 -43 1 -43 -17 0
-13 -7 -21 -18 -21 -9 0 -23 -9 -30 -20 -7 -11 -8 -20 -3 -20 5 0 11 -9 14
-20 3 -13 0 -20 -9 -20 -26 0 -29 5 -26 39 3 24 0 31 -8 26 -9 -6 -9 -2 0 15
14 26 7 50 -15 50 -9 0 -14 -4 -11 -8 3 -5 -1 -9 -9 -9 -8 0 -12 4 -9 9 3 4 0
8 -5 8 -6 0 -11 -4 -11 -10 0 -6 -19 -7 -47 -4 -38 4 -45 3 -33 -6 13 -10 13
-11 -3 -6 -9 3 -29 1 -43 -4 -15 -6 -23 -6 -19 -1 3 5 -8 9 -24 9 -22 -1 -28
-5 -24 -17 4 -13 3 -13 -5 -2 -6 8 -15 10 -23 6 -9 -6 -11 -3 -6 8 7 20 3 21
-24 7 -14 -8 -19 -7 -19 1 0 7 -3 9 -7 5 -5 -4 1 -14 12 -23 19 -15 19 -15 -4
-8 -21 6 -23 5 -18 -14 3 -11 1 -21 -4 -21 -5 0 -9 8 -9 18 0 14 -2 15 -10 2
-5 -8 -10 -11 -10 -6 0 5 8 18 18 29 16 19 16 19 -8 13 -21 -6 -22 -5 -7 4 11
7 17 24 17 50 0 25 5 40 13 41 9 0 9 2 -1 6 -6 2 -10 9 -6 14 3 5 0 9 -5 9 -6
0 -11 -5 -11 -11 0 -5 -4 -7 -10 -4 -5 3 -10 0 -11 -7 0 -10 -2 -11 -6 0 -3 8
-9 10 -16 3 -7 -5 -23 -7 -37 -4 -25 4 -24 7 37 70 47 48 62 70 58 84 -7 22
-21 25 -28 7 -4 -9 -6 -9 -6 -1 -1 11 39 48 59 55 6 2 6 15 0 33 -10 29 -10
29 -6 2 3 -23 1 -25 -12 -15 -13 11 -15 10 -9 -4 3 -10 2 -18 -3 -18 -5 0 -11
15 -13 33 -4 29 -4 29 -3 -5 0 -21 -6 -43 -13 -50 -12 -11 -13 -10 -8 5 5 12
3 16 -5 11 -6 -4 -24 -7 -39 -6 -29 1 -29 0 -14 -29 9 -16 12 -29 8 -30 -5 0
-16 -2 -25 -4 -10 -2 -21 1 -24 6 -3 5 -2 9 3 8 19 -3 33 2 33 12 0 6 -5 7
-12 2 -13 -7 -17 -9 -37 -12 -5 0 -11 -10 -14 -21 -3 -11 0 -18 7 -17 7 1 10
-12 10 -35 -2 -44 -3 -43 39 -23 23 12 27 12 15 2 -10 -8 -15 -17 -11 -21 4
-4 -1 -4 -11 0 -12 5 -17 4 -13 -3 3 -5 0 -10 -8 -10 -8 0 -15 5 -15 11 0 6
-5 4 -11 -4 -9 -12 -9 -11 -4 5 11 31 14 65 5 65 -4 0 -11 -19 -15 -42 -4 -24
-9 -50 -11 -58 -2 -8 -6 -35 -9 -60 -3 -25 -8 -52 -10 -60 -3 -8 -7 -32 -9
-53 -3 -21 -7 -41 -10 -46 -3 -4 -8 -26 -11 -47 -9 -65 -11 -74 -21 -83 -10
-10 -206 -41 -214 -34 -7 6 48 311 195 1093 25 135 52 283 60 330 41 260 114
367 291 427 55 19 458 91 461 83 1 -3 16 -84 33 -180z m-3610 -117 c0 -3 -28
-36 -62 -73 -35 -36 -78 -83 -96 -103 -42 -46 -62 -48 -63 -4 0 17 -3 26 -6
20 -2 -7 -14 -13 -26 -13 -18 0 -19 2 -7 10 8 5 10 10 5 10 -13 0 -35 -20 -35
-32 0 -4 7 -5 15 -2 8 4 15 1 15 -5 0 -6 5 -11 11 -11 5 0 7 5 4 10 -3 6 -2
10 4 10 5 0 9 -9 8 -19 -1 -18 -5 -19 -47 -9 -8 1 -14 -3 -12 -10 1 -8 -2 -11
-8 -7 -6 4 -18 1 -27 -7 -12 -9 -15 -9 -9 0 4 7 1 12 -9 12 -9 0 -14 -4 -11
-8 2 -4 -5 -9 -17 -9 -17 -2 -19 0 -7 7 13 8 -4 9 -53 1 -4 0 -6 -6 -5 -12 2
-6 -3 -14 -11 -17 -9 -3 -11 0 -6 9 6 11 5 12 -6 2 -7 -7 -22 -13 -33 -12 -19
0 -19 1 3 10 30 12 24 19 -11 12 -15 -3 -25 -9 -22 -14 3 -5 -4 -9 -15 -9 -10
0 -26 -3 -34 -6 -8 -3 -21 1 -28 8 -8 7 -43 37 -79 67 -36 30 -69 58 -74 63
-5 4 -7 10 -5 13 5 5 274 53 339 60 83 10 117 14 150 20 19 3 85 14 145 24
135 23 125 22 125 14z m2252 -93 c92 -25 184 -118 212 -214 22 -74 23 -465 1
-545 -36 -136 -130 -252 -257 -315 -39 -20 -77 -36 -84 -36 -8 0 -14 -2 -14
-5 0 -5 167 -230 288 -388 29 -37 52 -72 52 -76 0 -5 -31 -12 -70 -15 -67 -7
-72 -6 -152 34 -46 22 -105 43 -133 46 -27 4 -59 15 -70 25 -11 10 -63 81
-115 159 -68 100 -99 138 -110 134 -8 -3 -36 -8 -62 -11 l-47 -6 -3 -146 -3
-146 -47 -6 c-116 -17 -218 -60 -327 -137 l-64 -45 6 579 c4 318 7 677 7 797
l0 217 28 0 c15 0 61 6 102 14 41 8 93 17 115 20 22 3 121 17 220 32 373 55
432 59 527 34z m1728 -247 c-1 -170 -3 -195 -14 -174 -12 22 -14 22 -23 6 -8
-13 -17 17 -38 125 l-27 142 48 49 c27 27 50 49 51 49 2 0 3 -89 3 -197z
m-5044 75 c90 -93 93 -86 -41 -107 -98 -16 -416 -70 -440 -75 -11 -2 -49 -7
-85 -11 -107 -12 -260 -44 -340 -72 -76 -26 -243 -104 -237 -110 2 -1 44 2 93
8 127 16 202 8 279 -30 125 -62 144 -118 145 -437 l0 -172 -47 -7 c-70 -10
-113 -16 -132 -20 -9 -1 -35 -6 -58 -10 l-43 -7 0 162 0 161 -32 -6 c-18 -3
-78 -12 -133 -21 -55 -8 -101 -17 -102 -18 -5 -5 -7 -995 -2 -1000 3 -3 50 2
104 10 55 8 112 13 127 11 17 -2 29 2 33 11 3 7 5 63 5 122 l0 109 33 6 c46 8
230 35 240 35 5 0 7 -84 5 -187 -3 -181 -4 -190 -30 -238 -34 -65 -112 -138
-182 -170 -30 -14 -60 -25 -65 -25 -7 0 -11 45 -11 131 0 90 -3 128 -11 124
-6 -4 -8 -22 -4 -44 3 -22 0 -52 -9 -76 -8 -22 -15 -32 -15 -22 -1 28 -21 19
-22 -10 -1 -17 -3 -21 -6 -10 -2 9 -10 17 -18 17 -16 0 -26 25 -19 45 4 10 0
15 -15 15 -22 0 -28 -14 -11 -25 6 -4 5 -12 -5 -21 -10 -11 -25 -13 -50 -8
-35 6 -35 6 -35 -30 0 -29 -4 -36 -20 -36 -11 0 -20 -4 -20 -9 0 -12 29 -22
43 -15 8 5 9 3 2 -4 -6 -6 -42 -13 -82 -15 -39 -3 -76 -7 -81 -11 -6 -3 -16 0
-24 7 -7 7 -24 13 -37 13 -29 0 -79 37 -113 84 -34 46 -48 126 -48 266 0 65
-4 115 -10 119 -5 3 -10 16 -11 28 0 21 -1 21 -8 2 -5 -11 -11 -93 -15 -181
-5 -136 -4 -170 10 -210 23 -68 58 -111 125 -153 33 -20 59 -39 59 -43 0 -14
-132 -20 -188 -9 -95 19 -156 72 -204 177 -23 49 -23 50 -26 603 -2 366 1 579
8 625 12 76 58 192 112 284 47 80 180 211 279 275 164 107 259 134 669 192
114 16 311 46 485 74 61 9 119 18 131 19 14 1 46 -25 100 -80z m1811 32 c67
-30 78 -56 118 -270 13 -69 81 -465 101 -585 6 -35 34 -191 40 -220 3 -11 25
-137 49 -280 25 -143 47 -272 50 -287 4 -25 1 -28 -33 -33 -20 -4 -59 -11 -85
-16 -76 -14 -97 -12 -97 11 0 11 -4 20 -10 20 -5 0 -7 6 -5 13 5 14 -19 160
-25 153 -3 -2 -5 19 -6 47 -1 28 -6 53 -12 55 -7 2 -9 15 -5 33 4 23 2 29 -12
29 -24 0 -127 -31 -122 -37 3 -2 21 0 41 5 29 8 36 8 36 -4 0 -8 4 -14 9 -14
5 0 7 10 5 23 -2 12 -2 16 2 9 3 -6 10 -10 15 -6 5 3 9 -2 9 -10 0 -9 -11 -18
-25 -22 -27 -7 -34 -24 -9 -24 8 0 12 -4 9 -10 -10 -17 -55 -12 -55 6 0 9 -6
14 -12 11 -7 -2 -12 -10 -10 -17 2 -8 -4 -11 -17 -7 -14 3 -18 1 -14 -10 5
-12 1 -14 -18 -8 -16 4 -20 3 -10 -3 9 -7 10 -12 2 -16 -6 -4 -11 -16 -11 -27
0 -10 -4 -19 -8 -19 -17 0 -21 13 -11 31 7 14 6 19 -2 19 -8 0 -8 4 1 15 7 8
19 15 26 15 13 0 19 13 15 34 -1 5 5 6 14 2 12 -4 14 -2 5 13 -8 16 -15 18
-47 9 -21 -5 -45 -10 -53 -10 -8 0 -20 -5 -27 -10 -7 -5 -17 -7 -22 -4 -10 7
-51 -14 -51 -25 0 -3 6 -6 14 -6 8 0 14 5 13 10 -1 5 4 12 12 15 8 3 11 0 7
-7 -5 -7 -1 -9 10 -4 12 4 15 3 10 -5 -10 -17 9 -15 23 2 9 11 9 15 -1 19 -7
3 -2 5 12 4 14 0 30 -4 37 -9 7 -6 14 -4 19 3 5 8 3 9 -6 4 -9 -5 -11 -4 -6 3
11 18 35 14 32 -4 -4 -24 -35 -39 -42 -20 -8 20 -20 20 -27 2 -4 -10 -1 -13 9
-9 24 9 16 -17 -10 -28 -17 -8 -29 -8 -45 0 -18 10 -21 9 -21 -6 0 -14 8 -18
32 -18 18 0 33 -5 33 -12 0 -6 3 -15 8 -19 12 -13 8 -24 -10 -24 -15 0 -16 2
-3 10 8 5 11 10 5 10 -5 0 -16 -4 -23 -8 -9 -6 -6 -11 11 -19 17 -8 28 -8 35
-1 7 7 10 6 8 -6 -1 -9 -6 -16 -11 -15 -4 0 -12 -5 -17 -13 -8 -10 -9 -10 -5
2 2 9 -9 24 -31 38 -25 16 -33 18 -29 7 4 -8 2 -15 -3 -15 -17 0 -11 -18 8
-24 9 -3 -4 -3 -30 -1 -27 3 -48 1 -48 -4 0 -13 -78 -5 -97 10 -14 12 -16 12
-8 0 6 -11 4 -13 -8 -8 -8 3 -18 0 -21 -8 -3 -9 3 -15 17 -17 20 -3 19 -4 -5
-9 -15 -4 -25 -3 -23 2 3 4 1 10 -5 14 -5 3 -10 1 -10 -5 0 -6 -5 -8 -10 -5
-6 4 -9 1 -8 -6 2 -6 -3 -14 -9 -16 -7 -3 -13 0 -13 6 0 6 -5 11 -11 11 -5 0
-7 -4 -4 -10 9 -15 -4 -32 -18 -23 -7 4 -23 9 -37 10 -23 2 -23 1 -5 -7 14 -6
-1 -9 -50 -7 -58 2 -70 5 -73 20 -2 12 3 17 17 17 14 0 19 5 15 15 -4 8 -12
15 -19 15 -8 0 -14 16 -17 39 -3 34 -1 38 11 28 12 -10 12 -9 2 11 -7 13 -10
26 -7 30 3 3 6 0 6 -7 0 -7 5 -9 12 -5 7 4 8 3 4 -4 -5 -8 -1 -10 11 -5 16 6
17 5 3 -13 -14 -18 -14 -18 3 -5 16 13 16 16 -8 47 -14 19 -21 34 -16 34 6 0
11 -4 11 -10 0 -5 7 -7 15 -4 8 4 15 10 15 16 0 5 -6 6 -12 2 -8 -5 -7 0 2 11
14 17 13 18 -3 12 -13 -5 -16 -3 -10 6 4 6 8 17 9 24 1 7 9 26 17 42 14 27 13
31 -4 50 -19 20 -26 47 -10 37 5 -3 11 5 13 19 3 14 1 25 -3 25 -5 0 -9 9 -9
20 0 11 4 20 10 20 5 0 6 -7 3 -17 -4 -10 -2 -14 5 -9 6 3 10 15 9 26 -1 10
-5 16 -11 13 -11 -7 -4 43 30 217 9 41 17 89 20 105 5 31 39 211 48 255 3 14
13 59 21 100 9 41 20 98 25 125 17 105 40 152 107 219 114 116 274 165 380
116z m-3276 -108 c-134 -92 -239 -187 -314 -282 l-27 -35 0 147 0 146 53 7
c51 6 159 25 247 44 93 19 100 14 41 -27z m1492 -1587 c12 3 119 19 237 35
118 17 226 33 240 35 61 11 182 26 185 23 10 -10 17 -286 8 -291 -10 -6 -73
-16 -238 -38 -44 -6 -141 -19 -215 -30 -74 -11 -148 -22 -165 -24 -16 -2 -93
-13 -170 -25 -77 -11 -156 -23 -175 -26 -19 -3 -62 -9 -95 -15 -33 -5 -65 -9
-71 -9 -9 0 -12 193 -13 753 0 413 2 790 5 838 l6 85 126 18 c70 10 145 20
167 23 22 2 63 8 90 11 l50 7 3 -688 2 -687 23 5z m1007 318 c-10 -51 -69
-353 -83 -428 l-12 -60 -65 -7 c-35 -4 -66 -6 -67 -4 -2 2 8 94 23 204 l28
201 89 66 c49 36 90 65 92 65 1 0 -1 -17 -5 -37z m4019 -120 l0 -138 -112 -90
c-61 -49 -219 -180 -352 -290 -132 -110 -258 -214 -280 -230 -22 -17 -42 -32
-45 -35 -19 -20 -194 -152 -208 -156 -15 -5 -15 -4 -2 6 13 10 12 11 -5 5 -11
-4 -27 -7 -35 -8 -8 0 -20 -4 -27 -9 -7 -5 -17 -7 -23 -3 -5 3 -10 -1 -10 -9
0 -9 -4 -16 -10 -16 -5 0 -10 7 -10 15 0 14 12 19 33 16 4 0 7 5 7 13 0 16
-15 15 -47 -2 -19 -10 -21 -17 -13 -37 7 -19 6 -23 -5 -18 -8 3 -12 10 -9 15
4 6 1 14 -6 18 -9 6 -5 13 14 25 18 12 25 23 21 35 -4 12 2 24 15 33 19 13 19
15 4 21 -10 4 -24 0 -32 -8 -11 -11 -20 -12 -38 -4 -29 14 -32 28 -4 23 11 -2
21 0 21 6 1 5 2 15 3 22 1 6 9 11 19 11 9 -1 14 2 11 7 -3 5 -1 9 5 9 5 0 11
-5 13 -12 3 -7 7 -5 11 6 4 10 3 15 -3 11 -6 -3 -10 -2 -10 4 0 14 53 49 68
44 7 -3 10 1 6 10 -4 11 46 60 163 161 187 162 286 252 263 240 -8 -4 -40 -24
-70 -43 -30 -20 -59 -38 -65 -41 -12 -6 -196 -127 -278 -183 -32 -21 -61 -36
-65 -33 -3 4 0 11 7 15 8 5 9 11 3 15 -11 7 -25 -21 -17 -34 3 -5 -14 -22 -38
-39 -29 -20 -44 -25 -44 -16 0 8 3 14 6 13 22 -2 28 4 23 24 -3 14 -2 19 7 14
6 -4 9 -12 6 -17 -3 -5 1 -6 9 -3 13 5 11 10 -11 28 -15 11 -29 20 -31 18 -2
-2 -10 5 -19 15 -8 10 -12 13 -9 6 5 -8 -2 -10 -20 -7 -25 5 -26 3 -13 -13 13
-16 12 -17 -3 -4 -21 15 -14 33 10 29 10 -2 16 3 14 10 -1 8 2 11 8 7 9 -6 13
7 13 48 0 9 4 17 9 17 5 0 7 4 4 8 -2 4 10 19 27 32 17 14 39 33 49 43 10 9
18 14 18 11 0 -3 13 7 28 22 33 34 19 23 262 207 107 81 221 167 252 191 47
36 68 46 115 52 32 3 128 17 213 29 85 12 167 23 183 24 l27 1 -1 -137z
m-2238 -48 c-44 -42 -200 -217 -206 -232 0 -1 -19 4 -40 12 -46 16 -161 20
-170 5 -3 -5 -14 -10 -23 -10 -10 0 -34 -9 -55 -20 -46 -25 -47 -15 -2 37 121
142 353 259 518 262 l38 1 -60 -55z m351 16 c103 -37 177 -83 255 -160 74 -73
119 -139 157 -228 29 -69 56 -209 56 -287 0 -121 -42 -273 -102 -373 -40 -66
-125 -162 -165 -185 -27 -16 -31 -15 -68 1 l-40 18 32 7 c39 9 146 120 185
192 l27 51 -85 92 c-88 94 -165 156 -179 143 -5 -4 -5 -1 -1 6 4 6 3 12 -3 12
-5 0 -22 11 -38 24 -42 35 -119 76 -128 68 -5 -4 -5 -1 -1 6 4 7 1 12 -8 12
-8 0 -16 3 -18 8 -6 13 -130 72 -139 66 -5 -3 -8 0 -7 7 2 6 -9 15 -24 19 -15
5 -35 16 -44 25 -9 9 -25 14 -35 12 -21 -6 -25 3 -7 21 8 8 55 -11 190 -79
267 -135 412 -238 504 -359 l38 -50 13 31 c7 18 16 48 19 68 10 59 14 241 5
241 -4 0 -6 13 -3 29 2 16 -1 32 -9 36 -8 6 -10 4 -4 -6 8 -12 6 -12 -8 0 -13
11 -17 11 -17 1 0 -8 -3 -10 -7 -6 -4 4 3 16 17 27 23 18 23 19 3 9 -21 -10
-27 -7 -24 12 0 3 -7 5 -17 3 -9 -1 -16 -8 -14 -14 4 -18 -5 -13 -22 13 -11
18 -13 27 -4 32 6 4 8 3 4 -4 -3 -6 -2 -13 4 -17 11 -7 13 5 4 28 -5 13 -9 12
-25 -4 -11 -11 -24 -17 -30 -13 -8 4 -7 10 0 17 6 6 11 16 11 22 0 5 -5 2 -11
-7 -12 -21 -31 -24 -28 -5 3 27 -2 37 -18 36 -11 0 -13 -3 -5 -6 18 -7 14 -31
-7 -38 -19 -6 -71 12 -71 25 0 4 10 14 22 22 17 11 19 16 8 23 -9 5 -11 4 -6
-3 4 -7 2 -12 -3 -12 -6 0 -11 6 -12 13 0 6 -5 -3 -11 -22 -6 -23 -12 -31 -17
-22 -5 7 -19 11 -32 9 -14 -2 -24 2 -25 10 -1 6 -2 20 -3 30 -1 10 -4 13 -9 7
-4 -5 -17 -11 -29 -11 -16 -1 -20 3 -17 19 2 15 1 18 -8 9 -7 -7 -19 -7 -34
-2 -17 7 -24 6 -24 -2 0 -9 -3 -9 -12 0 -14 14 -32 16 -24 3 3 -5 -17 -8 -46
-6 -42 2 -55 -1 -73 -19 -18 -18 -26 -20 -39 -11 -13 10 -8 16 38 38 162 80
345 74 532 -15 47 -22 87 -38 90 -35 13 12 -86 93 -151 123 -102 47 -137 54
-255 50 -121 -3 -203 -26 -288 -82 l-54 -35 -51 26 c-68 35 -76 43 -57 58 8 7
54 57 102 113 48 55 108 120 133 143 l46 43 62 -7 c34 -4 96 -20 139 -34z
m-1122 -298 c0 -18 -35 -103 -42 -103 -4 0 -5 -6 -3 -13 3 -6 -4 -18 -16 -25
-12 -8 -19 -10 -16 -5 3 5 -3 9 -14 9 -10 0 -19 -7 -19 -14 0 -8 -6 -12 -15
-8 -8 3 -15 1 -15 -4 0 -6 12 -10 26 -10 14 0 23 -4 20 -9 -7 -11 -56 -11 -56
0 0 5 -16 -1 -35 -12 -19 -12 -35 -25 -35 -30 0 -5 -5 -9 -11 -9 -5 0 -7 5 -4
10 11 17 -29 10 -55 -9 -18 -14 -29 -17 -42 -10 -13 7 -18 6 -18 -2 0 -8 -4
-8 -15 1 -13 11 -14 10 -9 -6 4 -10 4 -16 0 -12 -5 4 -18 3 -31 -2 -20 -8 -22
-6 -19 13 4 22 4 22 -7 -1 -12 -21 -36 -25 -32 -5 1 5 -5 10 -13 10 -9 0 -12
-7 -8 -19 6 -22 -2 -23 -22 -4 -10 11 -11 15 -2 18 8 3 7 6 -3 10 -18 7 -22
-23 -5 -34 7 -5 4 -8 -6 -8 -10 0 -18 5 -18 11 0 5 -5 7 -10 4 -6 -4 -8 -10
-6 -14 3 -4 -7 -8 -22 -9 -15 -1 -38 -4 -52 -7 -74 -15 -108 -15 -113 0 -4 8
-12 15 -19 14 -10 0 -10 -2 0 -6 14 -6 16 -33 2 -33 -5 0 -10 5 -10 10 0 6 -5
10 -11 10 -5 0 -7 -4 -4 -10 3 -5 0 -11 -7 -12 -7 0 -24 -3 -38 -4 -14 -2 -44
-5 -67 -7 -23 -1 -45 -6 -49 -10 -13 -12 -36 -8 -28 6 5 7 1 6 -10 -3 -21 -16
-30 -18 -106 -24 -30 -3 -62 -7 -70 -9 -47 -16 -91 -17 -113 -2 -23 15 -37 12
-37 -8 0 -5 7 -7 15 -4 8 4 16 3 19 -1 3 -4 -5 -9 -17 -9 -12 -1 -42 -5 -67
-9 -25 -4 -54 -8 -65 -9 -11 0 -33 -4 -50 -8 -67 -15 -116 -17 -109 -4 4 6 -3
3 -16 -8 -20 -17 -23 -18 -17 -2 4 9 2 17 -3 17 -6 0 -10 -6 -10 -14 0 -10
-16 -16 -52 -20 -83 -9 -107 -5 -124 18 -15 20 -15 20 -12 1 2 -12 -2 -19 -9
-18 -8 2 -10 -4 -6 -15 3 -9 3 -14 -1 -11 -4 4 -27 2 -53 -2 -31 -6 -50 -5
-59 2 -11 9 -15 7 -20 -5 -3 -9 -10 -16 -16 -16 -5 0 -6 6 -2 13 5 7 0 6 -11
-3 -17 -13 -18 -13 -10 0 5 9 -1 7 -15 -5 -14 -12 -20 -14 -15 -5 8 13 7 13
-8 1 -9 -7 -17 -10 -17 -7 0 4 -5 4 -12 0 -7 -4 -26 -9 -43 -11 -16 -2 -35
-11 -42 -20 -11 -15 -18 -14 -75 12 -35 15 -66 31 -71 34 -4 4 16 45 45 91
l53 84 105 18 c58 10 152 24 210 32 58 8 114 17 125 19 11 3 45 8 75 12 67 8
107 14 140 20 14 2 52 7 85 11 33 3 69 8 80 10 11 3 70 11 130 19 61 8 121 17
135 20 39 7 87 15 190 30 90 13 494 70 570 80 20 3 45 7 56 9 12 2 43 7 70 11
27 3 85 12 129 19 100 17 105 18 105 9z m3002 -365 l-3 -123 -42 -38 c-109
-100 -353 -297 -367 -296 -10 0 -9 3 5 9 13 6 15 9 5 9 -12 1 -12 3 -2 10 10
6 10 10 -3 21 -8 7 -15 17 -15 23 0 6 7 1 16 -11 13 -19 18 -21 31 -10 9 7 18
12 21 10 3 -1 7 4 8 11 2 14 -23 19 -41 8 -6 -3 -1 3 11 14 17 15 20 25 13 42
-8 22 -42 47 -51 37 -3 -2 -11 3 -18 11 -11 14 -10 19 6 35 31 30 418 359 424
360 3 0 4 -55 2 -122z m-5524 3 c-4 -11 -214 -182 -278 -227 -43 -30 -64 -37
-140 -49 -19 -3 -48 -8 -63 -11 -16 -3 -34 0 -43 7 -12 10 -13 9 -8 -5 5 -13
-1 -16 -37 -17 -53 -2 -104 -6 -104 -9 0 -1 -16 -4 -35 -6 -19 -2 -44 -5 -55
-7 -11 -3 -26 0 -33 6 -9 7 -11 6 -6 -7 5 -13 0 -16 -27 -14 -19 1 -43 -2 -54
-6 -16 -6 -17 -6 -5 3 8 6 10 11 5 11 -6 0 -15 -4 -20 -9 -15 -13 -171 -42
-200 -37 -13 3 -27 0 -31 -6 -3 -5 -17 -7 -30 -4 -13 4 -24 2 -24 -3 0 -5 -15
-8 -32 -7 -18 1 -37 -1 -43 -5 -5 -4 -23 -9 -40 -11 l-30 -3 -3 80 c-2 44 0
94 3 111 5 29 10 32 53 38 26 4 135 20 242 37 107 17 211 32 230 35 19 2 67 9
105 15 39 6 84 13 100 15 17 3 55 9 85 14 30 5 78 12 105 15 28 4 77 11 110
17 33 5 72 12 88 14 120 15 193 26 196 30 8 8 23 4 19 -5z m2262 -103 c-1 -31
-39 -133 -51 -136 -8 -1 -124 -18 -259 -37 -135 -18 -254 -36 -265 -38 -11 -3
-45 -8 -75 -12 -30 -4 -64 -9 -75 -11 -11 -3 -72 -11 -135 -20 -63 -8 -136
-21 -161 -29 -25 -8 -79 -20 -120 -25 -41 -6 -121 -19 -179 -29 l-105 -18 -40
23 c-22 13 -58 24 -80 25 -22 2 -58 11 -80 21 -22 10 -53 18 -70 18 -37 0 -67
16 -45 24 12 4 198 36 345 60 94 16 520 75 574 81 36 3 67 7 70 9 3 2 31 7 61
10 30 4 66 8 80 10 54 9 177 28 210 32 19 3 109 15 200 28 201 29 200 29 200
14z m200 -85 c1 -56 40 -206 71 -266 31 -63 128 -198 158 -220 9 -7 22 -19 28
-28 11 -13 10 -16 -5 -16 -9 0 -23 4 -30 10 -9 7 -11 6 -6 -7 5 -12 2 -15 -10
-10 -9 4 -16 1 -16 -6 0 -10 -4 -10 -15 0 -13 11 -13 15 -3 22 9 6 6 7 -8 4
-16 -5 -29 4 -59 40 -103 122 -156 248 -180 422 -5 39 -3 43 27 62 43 26 48
25 48 -7z m-2364 -127 c27 -38 52 -62 60 -59 7 2 20 1 28 -4 14 -8 13 -13 -8
-42 -23 -30 -115 -101 -132 -101 -4 0 -15 -6 -23 -14 -9 -8 -50 -26 -92 -41
-70 -24 -87 -26 -197 -23 -66 1 -124 6 -128 10 -10 10 21 54 53 75 20 13 50
18 127 19 69 1 113 6 140 18 42 17 72 21 78 8 2 -5 31 6 65 23 l62 32 -45 48
-45 47 -30 -28 -29 -28 -1 30 c-1 16 -1 36 0 44 2 18 38 50 56 50 8 0 35 -29
61 -64z m2140 -135 c17 -10 37 -33 44 -51 11 -27 11 -36 -3 -64 -29 -62 -105
-71 -153 -19 -40 43 -24 106 35 138 34 19 40 18 77 -4z m-1401 -96 c39 -8 125
-20 193 -25 183 -14 264 -57 175 -93 -156 -62 -378 -100 -468 -80 -16 3 -41 7
-55 8 -14 2 -47 8 -75 15 -27 6 -59 13 -70 15 -38 7 -178 27 -209 30 -17 2
-31 4 -31 5 0 1 -25 3 -55 5 -30 2 -66 7 -80 10 -14 3 -56 8 -95 11 l-70 5 35
-20 c19 -10 97 -34 172 -53 76 -18 138 -36 138 -40 0 -4 -11 -5 -25 -2 -17 3
-23 0 -20 -8 6 -15 -42 -39 -88 -43 -18 -2 -65 -8 -106 -15 -60 -9 -75 -9 -82
2 -6 8 -9 9 -9 2 0 -7 -14 -14 -30 -16 -24 -4 -30 -1 -25 10 4 10 1 12 -12 7
-10 -4 -22 -7 -28 -7 -43 3 -103 18 -175 42 -83 29 -114 33 -68 10 12 -7 34
-23 48 -35 48 -44 147 -105 206 -127 l59 -23 -45 -6 c-69 -9 -109 5 -231 82
-148 92 -157 102 -150 165 l6 49 55 -5 c30 -3 100 -5 155 -5 120 0 170 15 291
86 l86 51 50 -16 c28 -9 65 -16 82 -16 18 0 36 -4 41 -9 12 -11 116 -33 123
-27 2 3 13 1 24 -5 11 -6 34 -13 51 -16 57 -9 62 -10 102 -21 42 -13 265 -62
277 -62 5 0 8 4 8 10 0 13 -79 46 -170 72 -41 12 -76 23 -78 24 -2 1 6 21 18
44 24 47 14 46 155 15z m961 -7 c17 -13 69 -66 117 -118 86 -95 86 -95 134
-95 41 0 48 -3 51 -20 2 -16 -6 -24 -32 -33 -41 -15 -128 -72 -171 -113 -56
-53 -61 -29 -11 51 35 55 38 84 7 56 -10 -9 -22 -16 -27 -16 -5 0 -41 34 -80
76 l-71 75 -31 -18 c-28 -16 -34 -16 -42 -3 -7 11 -10 6 -10 -19 0 -33 -1 -34
-15 -15 -35 47 -3 146 63 188 47 31 80 32 118 4z m-2472 -175 c-15 -35 -17
-105 -3 -114 7 -4 11 -11 8 -14 -5 -4 -268 -55 -285 -55 -5 0 -94 125 -97 135
-1 6 76 21 178 36 225 34 209 33 199 12z m4534 -18 c28 -9 54 -19 57 -24 6
-11 -42 -40 -120 -71 -33 -13 -65 -27 -72 -32 -7 -6 -17 -7 -23 -3 -5 3 -13
-1 -16 -9 -3 -9 -9 -14 -13 -11 -4 2 -19 -2 -34 -10 -14 -7 -28 -11 -31 -7 -3
3 -6 0 -6 -6 0 -7 -9 -12 -19 -12 -11 0 -23 -5 -27 -12 -5 -7 -3 -8 6 -3 9 5
11 4 6 -4 -4 -6 -12 -9 -17 -5 -11 6 -119 -46 -119 -58 0 -4 -9 -5 -20 -3 -11
2 -18 0 -15 -5 3 -5 -9 -18 -27 -30 -31 -21 -32 -21 -9 -1 14 13 18 21 10 21
-20 0 -34 -12 -48 -37 -6 -13 -21 -27 -34 -33 -21 -11 -21 -10 2 9 13 12 19
21 15 21 -14 -1 -44 -26 -44 -38 0 -14 -28 -23 -35 -12 -4 6 -11 10 -17 10 -7
0 -7 -5 1 -14 9 -10 8 -15 -4 -19 -8 -4 -14 -3 -14 1 4 26 -2 24 -46 -15 -17
-16 -28 -17 -19 -1 5 7 3 8 -5 4 -7 -5 -16 -18 -21 -30 -8 -19 -9 -19 -9 -2
-1 19 -1 19 -15 1 -14 -20 -82 -32 -70 -13 4 7 2 8 -5 4 -9 -6 -9 -11 -1 -21
8 -9 8 -15 0 -20 -5 -3 -10 -1 -10 6 0 7 -7 4 -16 -7 -15 -19 -16 -19 -10 1 6
19 6 19 -9 1 -9 -12 -22 -17 -35 -13 -15 4 -20 0 -20 -13 0 -13 -6 -18 -20
-15 -11 2 -22 0 -25 -5 -3 -5 -12 -7 -20 -3 -11 4 -13 1 -8 -13 6 -17 5 -18
-12 -4 -10 8 -16 10 -12 3 4 -6 0 -16 -9 -21 -19 -11 -66 -3 -58 9 3 5 0 9 -6
9 -18 0 -139 73 -135 81 10 16 -55 0 -80 -19 -34 -27 -50 -27 -82 -2 -22 17
-34 19 -82 13 -57 -8 -93 -8 -233 -4 -42 1 -85 -2 -96 -8 -17 -9 -181 -299
-216 -382 l-15 -36 72 -64 c40 -36 95 -84 124 -108 l51 -43 221 111 c121 60
246 124 278 142 96 53 243 140 243 144 0 2 -29 23 -64 48 -54 38 -69 44 -102
41 -73 -8 -83 -10 -91 -18 -5 -5 -2 -6 6 -1 10 5 12 4 7 -3 -5 -9 -13 -9 -27
-2 -14 8 -19 7 -19 -2 0 -9 -3 -9 -10 2 -9 13 -10 13 -10 0 0 -17 -36 -24 -45
-9 -3 5 0 6 8 3 8 -3 18 -1 21 4 3 5 -6 10 -19 10 -14 0 -25 -5 -25 -11 0 -5
-10 -2 -22 9 -12 10 -18 14 -15 7 9 -14 -9 -27 -18 -13 -9 15 -65 13 -65 -2 0
-9 -3 -10 -8 -2 -7 12 -142 28 -142 17 0 -18 100 -160 155 -222 23 -26 13 -21
-43 23 -41 31 -79 53 -85 49 -5 -3 -8 -2 -5 3 3 5 0 14 -7 21 -10 9 -19 8 -39
-2 -15 -8 -24 -10 -21 -5 4 6 0 10 -9 10 -8 0 -22 3 -32 7 -10 4 -15 2 -11 -4
3 -5 0 -10 -8 -10 -8 0 -12 3 -10 6 2 4 -12 7 -30 7 -26 0 -32 -3 -28 -15 4
-12 3 -13 -6 -5 -9 8 1 36 39 113 27 56 56 104 64 107 8 3 112 1 232 -4 188
-8 222 -8 250 6 30 14 34 13 71 -8 21 -13 58 -42 83 -64 25 -23 57 -52 72 -65
l26 -23 79 50 c43 27 132 82 198 121 167 100 273 166 391 243 119 78 196 119
175 94 -7 -9 -17 -16 -22 -16 -5 0 -17 -8 -27 -17 -36 -35 -118 -100 -271
-215 -86 -64 -207 -156 -270 -205 -63 -48 -119 -90 -125 -92 -6 -2 -17 -10
-24 -18 -8 -7 -30 -26 -50 -41 -21 -15 -39 -29 -42 -32 -26 -26 -92 -70 -106
-70 -10 0 -15 -3 -11 -6 10 -10 -35 -53 -49 -47 -8 3 -14 -1 -14 -11 0 -9 -3
-15 -8 -13 -4 1 -8 -2 -9 -6 -2 -11 -85 -76 -92 -74 -4 1 -7 -2 -8 -8 -3 -15
-37 -23 -45 -11 -5 7 -8 5 -8 -5 0 -8 -16 -23 -34 -32 -33 -15 -35 -15 -41 3
-4 11 -3 24 0 30 10 17 -2 12 -92 -39 -49 -26 -160 -84 -248 -128 -88 -44
-185 -95 -215 -113 -30 -18 -59 -33 -65 -34 -5 -1 -35 -15 -65 -31 -30 -17
-63 -33 -72 -37 -30 -12 -20 0 12 17 17 9 28 20 24 26 -4 7 -12 4 -24 -6 -15
-14 -19 -14 -29 -1 -7 8 -18 14 -24 12 -7 -1 -9 -1 -4 1 4 3 5 9 1 14 -10 16
5 9 25 -12 10 -11 22 -16 25 -11 3 6 -1 13 -10 16 -13 5 -14 9 -4 21 12 15 0
22 -14 8 -4 -5 -11 -8 -14 -8 -4 -1 -29 -11 -57 -24 -181 -83 -208 -93 -216
-79 -5 7 -7 17 -6 23 3 9 127 72 516 264 105 52 191 98 191 102 0 6 -112 56
-195 87 -36 14 -158 38 -235 47 -30 4 -57 8 -60 10 -3 2 -64 6 -135 10 -71 3
-131 8 -134 10 -2 3 3 5 12 5 9 0 14 6 11 13 -9 24 263 19 392 -8 29 -7 31 -5
49 42 22 59 160 337 223 451 41 73 49 82 74 82 37 0 80 23 143 74 85 71 85 71
59 19 -57 -112 -8 -157 106 -97 28 14 53 30 55 35 8 12 69 55 64 43 -3 -5 -14
-26 -24 -46 -16 -31 -17 -41 -7 -64 11 -23 17 -26 48 -21 19 3 67 28 107 54
82 55 93 60 82 44 -4 -7 -9 -32 -12 -55 -4 -42 -3 -43 35 -55 22 -7 48 -10 60
-7 11 4 50 40 86 80 75 84 90 92 312 171 87 31 233 83 324 117 274 102 308
109 398 83z m-2622 -93 c-39 -75 -129 -110 -371 -141 -71 -9 -339 -48 -385
-56 -14 -2 -54 -9 -90 -14 -36 -5 -166 -25 -290 -45 -296 -46 -427 -61 -472
-52 -39 7 -110 67 -89 74 7 2 20 -3 29 -11 9 -8 35 -20 58 -27 42 -12 124 -5
369 34 50 8 108 18 130 21 22 3 81 12 130 20 50 8 131 19 180 25 50 5 125 17
169 25 43 8 158 26 255 40 228 33 270 45 318 94 21 21 46 39 56 40 16 1 16 -1
3 -27z m454 -21 c-95 -26 -131 -47 -246 -145 -32 -27 -67 -113 -60 -147 3 -16
2 -28 -2 -28 -21 3 -30 -3 -34 -26 -4 -18 -1 -25 11 -26 13 -1 13 -2 -1 -6
-10 -2 -18 -9 -18 -14 0 -19 -2 -24 -15 -39 -7 -8 -16 -25 -19 -37 -4 -13 -11
-23 -16 -23 -5 0 -7 -8 -5 -18 3 -15 -9 -22 -61 -37 -37 -10 -61 -22 -57 -28
4 -6 0 -8 -9 -4 -9 3 -21 0 -28 -6 -10 -9 -11 -9 -6 1 6 9 -1 12 -29 9 -19 -3
-33 -2 -31 1 3 2 1 13 -5 23 -9 17 -6 19 34 19 98 0 183 81 205 196 17 87 65
178 120 232 69 67 193 119 287 120 l50 0 -65 -17z m588 -14 c2 -10 -9 -21 -30
-30 -18 -8 -61 -35 -94 -61 -43 -32 -67 -44 -80 -39 -13 5 -15 3 -9 -8 6 -11
5 -11 -5 -2 -27 25 79 144 145 162 36 9 69 0 73 -22z m1720 -17 c30 -121 -91
-300 -292 -434 -49 -32 -97 -61 -108 -64 -29 -7 -13 19 29 48 61 41 239 222
256 260 20 43 24 71 14 88 -11 17 -27 15 -27 -4 0 -9 -6 -14 -13 -11 -19 7
-377 -244 -377 -265 0 -4 -5 -8 -11 -8 -6 0 -79 -51 -163 -113 -144 -108 -217
-155 -261 -171 -36 -12 19 33 220 184 105 79 235 178 290 221 200 154 410 308
421 308 6 1 16 -17 22 -39z m-1994 -77 c-15 -27 -48 -80 -73 -118 -25 -39 -66
-109 -91 -157 -24 -47 -47 -85 -51 -82 -4 2 -10 -3 -13 -12 -3 -8 -2 -12 4 -9
17 11 11 -11 -11 -39 -11 -14 -26 -26 -32 -26 -7 0 -23 -12 -37 -26 -22 -24
-25 -25 -31 -8 -3 11 -5 22 -2 27 2 4 0 7 -5 7 -6 0 -13 -7 -16 -16 -3 -8 -10
-12 -16 -9 -6 4 -8 10 -5 15 6 10 -15 8 -32 -3 -7 -5 -13 -12 -13 -17 0 -5 6
-10 13 -13 6 -2 3 -3 -8 -1 -14 2 -25 -7 -38 -34 -27 -55 -91 -152 -99 -152
-14 0 -9 22 16 74 62 132 116 260 116 277 0 10 -16 39 -35 64 -44 58 -52 101
-29 150 23 49 73 81 183 115 90 28 91 28 86 6 -12 -58 -10 -70 17 -85 25 -14
30 -14 70 6 24 12 68 42 98 67 30 25 57 45 58 46 2 0 -9 -21 -24 -47z m-1601
-572 c10 -1 27 -16 37 -34 17 -29 24 -33 52 -29 18 3 31 2 28 -1 -8 -8 -312
-58 -318 -52 -3 2 -11 0 -18 -6 -7 -6 -33 -12 -58 -14 -25 -2 -54 -9 -66 -15
-25 -13 -55 -6 -44 11 4 7 3 9 -3 6 -6 -4 -18 4 -26 17 -9 13 -23 30 -31 39
-20 20 -14 22 104 37 47 6 103 16 125 21 22 6 62 12 88 13 26 2 51 6 54 10 4
3 18 4 32 2 14 -2 34 -5 44 -5z m562 -251 c11 -34 14 -76 7 -86 -12 -16 -30
-14 -27 4 2 9 4 19 4 22 1 3 6 -2 12 -10 7 -10 9 -11 7 -2 -2 8 -7 13 -11 13
-4 -1 -14 -1 -23 -1 -8 0 -12 -5 -9 -10 8 -12 -34 -29 -55 -22 -9 3 -8 -1 4
-10 16 -12 16 -15 3 -15 -15 0 -67 89 -67 115 0 6 23 13 53 15 28 2 62 4 74 5
14 1 24 -5 28 -18z"/>
<path d="M7697 6987 c-38 -233 -37 -228 -49 -221 -7 4 -8 2 -4 -4 4 -7 2 -12
-5 -12 -7 0 -9 -3 -6 -7 4 -3 15 1 24 9 10 9 41 22 68 30 48 13 50 15 53 51 2
21 -4 80 -14 130 -9 51 -19 112 -21 137 -3 25 -8 48 -12 52 -3 4 -19 -70 -34
-165z"/>
<path d="M3636 6539 c-4 -24 -10 -57 -12 -74 -3 -16 -9 -50 -15 -75 -18 -85
-20 -95 -25 -139 -3 -24 -9 -54 -14 -66 l-8 -22 66 15 c37 8 69 19 70 24 2 4
8 5 14 2 6 -4 6 0 0 12 -6 11 -16 60 -23 109 -7 50 -14 97 -16 105 -2 8 -6 40
-10 70 -8 77 -19 91 -27 39z"/>
<path d="M7835 5334 c-8 -65 -9 -74 -26 -174 -7 -41 -17 -78 -23 -82 -8 -6 -8
-8 0 -8 9 0 2 -56 -20 -155 -1 -5 -7 -20 -14 -32 -7 -13 -8 -24 -2 -28 5 -3 2
-14 -8 -25 -21 -26 -36 -26 -22 -1 7 14 7 22 -2 27 -6 4 -8 3 -5 -3 4 -6 1
-16 -7 -22 -11 -9 -12 -6 -8 14 2 14 0 25 -5 25 -8 0 -10 -46 -3 -60 1 -3 2
-9 1 -13 -1 -5 3 -6 9 -2 5 3 10 1 10 -6 0 -7 13 1 29 17 23 23 46 32 107 44
l79 15 -3 45 c-2 25 -17 130 -33 234 -16 105 -29 203 -29 218 0 50 -17 30 -25
-28z"/>
<path d="M6435 5309 c-66 -11 -126 -21 -132 -24 -10 -3 -13 -40 -13 -135 0
-97 3 -130 13 -130 6 0 57 7 112 15 55 9 118 18 140 21 68 9 65 2 65 144 l0
130 -32 -1 c-18 -1 -87 -10 -153 -20z"/>
<path d="M6087 4595 c-4 -52 1 -336 7 -342 1 -1 12 1 25 4 23 6 24 7 17 122
-3 64 -6 153 -6 198 0 74 -2 82 -19 80 -16 -1 -20 -11 -24 -62z"/>
<path d="M5045 4984 c-9 -53 -34 -189 -46 -247 -5 -26 -9 -61 -9 -77 0 -17 -3
-30 -7 -30 -5 0 -9 -25 -10 -56 -2 -31 -7 -62 -13 -69 -5 -6 -6 -16 -2 -20 4
-5 2 -5 -5 -1 -6 3 -15 2 -18 -4 -4 -6 -1 -9 6 -8 6 2 14 -3 16 -9 3 -7 1 -13
-4 -13 -5 0 -8 -13 -5 -30 3 -24 7 -28 21 -21 9 5 34 11 56 15 82 14 103 25
107 56 3 17 2 30 -2 30 -4 0 -14 60 -23 133 -10 72 -22 166 -27 207 -5 41 -12
98 -16 125 -7 63 -11 67 -19 19z"/>
<path d="M3347 4246 c-4 -27 -7 -122 -7 -212 l0 -164 25 0 25 0 0 190 c0 148
-3 191 -14 197 -7 4 -15 15 -18 23 -2 8 -8 -7 -11 -34z"/>
</g>
</svg>
